<?xml version="1.0" encoding="UTF-8"?>
<svg xmlns="http://www.w3.org/2000/svg" viewBox="0 0 128 128" role="img" aria-label="我的作品">
  <defs>
    <linearGradient id="g" x1="18" y1="14" x2="110" y2="114" gradientUnits="userSpaceOnUse">
      <stop offset="0" stop-color="#3b82f6"/>
      <stop offset="1" stop-color="#7c3aed"/>
    </linearGradient>
    <linearGradient id="bg" x1="12" y1="8" x2="116" y2="120" gradientUnits="userSpaceOnUse">
      <stop offset="0" stop-color="#f8fafc"/>
      <stop offset="1" stop-color="#eef2ff"/>
    </linearGradient>
  </defs>
  <rect x="4" y="4" width="120" height="120" rx="28" fill="url(#bg)"/>
  <rect x="4" y="4" width="120" height="120" rx="28" fill="none" stroke="rgba(15,23,42,.08)" stroke-width="1.5"/>
  <rect x="35" y="25" width="66" height="58" rx="10" fill="#e7eeff" transform="rotate(7 68 54)"/>
  <rect x="35" y="25" width="66" height="58" rx="10" fill="none" stroke="#b9c9ee" stroke-width="2" transform="rotate(7 68 54)"/>
  <rect x="25" y="36" width="74" height="66" rx="11" fill="#fff"/>
  <rect x="25" y="36" width="74" height="66" rx="11" fill="none" stroke="url(#g)" stroke-width="2.5"/>
  <circle cx="77" cy="55" r="8" fill="#5b8cff"/>
  <path d="m32 91 19-23 13 14 9-10 19 19v4H32v-4Z" fill="url(#g)"/>
  <path d="m51 68 13 14 9-10 19 19" fill="none" stroke="#eef2ff" stroke-width="2" stroke-linecap="round" stroke-linejoin="round"/>
</svg>
